<svg xmlns="http://www.w3.org/2000/svg" viewBox="0 0 225 225"><path fill="#3c3c3c" d="M136 10c3.43 5.11-.77 7.67-1 18l7.83 2.42 5.63 4.16L158 30l2 9 3.77-4.98c1.19-1.68 5.67-7.5 7.31-2.72.8 2.35-1.04 5.41-1.42 7.7-.57 3.48 2.66 9.13 5.43 11.13 2.5 1.81 5.15-.76 11.91-1.13-.35 10.17-5.74 9.43-6.8 14.58-.63 3.07 2.47 7.34 7.8 5.49 4.28-1.48 3.48-2.32 9-3.07-1.85 5.78-7.76 8.39-5.26 11.31 2.55 2.98 11.93-2.53 17.24-2.08 2.34.2 5.1 1.69 3.85 4.45-2.2 4.87-9.62 2.65-14.65 7.46-5.8 5.55-3.21 6.88-2.67 10.87.29 2.13-.16 3.92-.51 5.99 6.5-.14 20.69-3.83 25.86-.83 1.95 1.13 2.17 2.02 3.14 3.83-7.35 3.38-8.56.62-16 1.04-6.31.37-12.37 5.53-8.26 11.92 4.64 7.21 11.52 5.19 18.26 6.51 2.22.43 6.37 1.51 6.39 4.41.02 3.03-4.34 3.06-6.39 2.78-6.02-.8-15.08-5.22-20.98-2.92-5.26 2.04-5.32 6.19-7.46 10.26l-5.26 8c-1.01 1.82-2.66 4.78-1.98 6.9 1 3.12 5.87 4.34 7.02 8.14a4.67 4.67 0 0 1-.94 4.53c-3.96 4.66-11.76-.26-16.4-1.57-1.96 7.32-5.22 6.13-5.3 10.05-.07 3.37 3.88 7.15 3.93 10.93.05 3.16-2.36 5.27-5.46 4.23-2.06-.7-6.81-6.26-9.17-8.21-2.99 8.9-7.25-.1-11.78 1.33-3.19 1.02-3.33 6.85-7.33 7.95-4.65 1.26-7.3-5.21-13.87 0-7.56 6.01-6.15 13.53-7.82 18.72-.85 2.63-2.91 6.17-6.07 6.26-3.27.09-3.17-4.04-2.51-6.26.67-4.61 6.41-12.52 0-15.96-5.08-2.97-11.89 4.9-16.32 2.75-3.24-1.56-2.48-7.42-5.6-8.26-3.22-.86-7.49 5.23-11.1 1.85-2.16-2.01-1.07-5.73-2.62-8.07-1.59-2.39-4.58-2.2-6.89-3.48-3.82-2.12-6.19-7.32-11.09-7.46-5.24-.14-6.31 5.78-10.06 6.67-2.81.66-4.97-1.85-4.1-5.06.68-2.49 3.36-4.99 4.01-6.94 1.49-4.44-3.78-4.33-5.28-7.45l-1-7.59c-1.13-4.14-4.5-6.47-6.74-10-1.23-1.95-2.13-4.96-4.1-6.22-3.36-2.15-10.52 2.15-12.56-1.36-1.05-1.8.8-3.36 1.98-4.42 2.82-2.55 6.17-4.63 6.17-9 0-7.36-6.9-8.42-12.32-9.1-2.5-.32-6.17-1.43-5.26-4.8 1.49-5.44 9.61-.89 14.03-3.97 4.07-2.83 3.38-9.74 4.87-14.13 1.92-5.7 5.44-7.28 9.25-11.17 1.75-1.78 3.76-4.14 3.57-6.83-.63-9.06-17.39-7.48-20.06-15.02-1.56-4.41 3.48-5.28 6.6-4.56 5.57 1.29 9.75 7.33 14 7.5 4.17.16 6.33-4.67 10.04-7.49 4.73-3.6 8.4-1.45 12.53-6.54 5.67-6.98-2.4-9.23-1.57-18.89 2.96.57 4.93.87 6.93 3.39 1.89 2.37 3.36 7.89 7.35 7.02 7.54-1.64 5.33-9.21 4.9-14.41-.17-1.92-.07-7.66 3.46-5.83 4.27 2.21 3.39 15.46 11.36 15.92 1.63.09 3.48-.59 4.64-1.57 5.37-3.99-1.29-8.85 0-14.46 1.23-6.44 5.98-2.78 8.1.96 1.43 2.52 2.27 4.61 4.47 6.68 3.19 3.01 4.33 1.87 6.79 6.3 4.02-2.06 4.91-3.51 5.7-8 .37-2.13.24-6.56 2.67-7.51 1.85-.72 2.92 1.07 3.3 2.58 1.38 5.51-2.82 5.24 2.33 13.93 1.52-7.58 3.24-15.2 7-22zm-15.88 22c-1.61.52-2.64.7-3.97 1.72-6.99 5.35 2.1 11.18 3.97 2.26.52-1.78.17-2.36 0-3.98zM143 39l-1.35 4c-1.99 10.21 10.06 5.84 4.49-1.71-1.06-1.44-1.73-1.52-3.14-2.29zm-34 2.47C95.02 43.33 79.89 60.28 78.18 74 76.68 86.1 83.12 99.67 97 98.79c17.1-1.09 25.34-25.27 24.99-39.79-.21-8.31-3.72-16.92-12.99-17.53zm32 9.93c-15.87 4.67-22.45 26.66-20.83 41.6 1.22 11.18 10.14 20.15 21.83 17.47 18.82-4.31 20.36-27.24 15.65-42.47-2.52-8.17-6.59-17.4-16.65-16.6zM66 68.74c-5.75 3.38-3.52 8.44 0 7.52 3.05-.83 6.17-7.24 0-7.52zm1 14.21c-9.76-.18-20.58 8.04-24.01 17.05-3.7 9.73.6 20.48 11.01 23.1 2.69.68 5.23.98 8 .81 15.53-.96 18.25-15.3 14.84-27.91-1.63-6.04-3.54-10.98-9.84-13.05zm101.12 14.96c-5.45 3.24-1.85 9.61 1.47 7.92 2.44-1.24 3.43-6.81-1.47-7.92zM100 108.39c-13 3.86-16.03 10.79-20.42 14.01-3.05 2.24-10.43 1.89-17.57 6.71-10.04 6.77-16.26 28.43-5.8 37.25 3.98 3.36 12.6 5.83 17.79 5.46 5.58-.4 13.75-2.89 19-1.12 7.7 2.6 20.25 19.44 35 15.74 11.68-2.93 15.76-17.96 14.91-28.44-.92-11.27-10.38-17.06-12.6-21.17L127.07 125c-5.25-13.38-12.85-18.53-27.07-16.61zm56 2c-9.79 3.12-19.82 14.88-18.89 25.61.9 10.51 14.88 18.22 22.89 16.16 13.36-3.42 15.41-19.12 11.07-30.16-2.97-7.56-6.31-12.69-15.07-11.61z"/></svg>