<svg xmlns="http://www.w3.org/2000/svg" viewBox="0 0 32 32"><path fill="#3c3c3c" d="M12.556 0a2.64 2.64 0 0 0-.599.049c-1.203.267-1.649 1.483-2.161 2.604-.139.3-.256.143-.744 1.3-1.531-.183-3.412-.141-4.541-.272.187.647 1.109.264 1.727.272 1.012.008 2.06.268 2.815.272.045.28.285.589.333.865a5.88 5.88 0 0 1-.149 2.673c-.244.865-1.667 1.585-2 2.727-.137.471.017.873-.183 1.453-.147.184-.433.227-.633.361-1.409 1.589-2.231 4.237-2.632 6.537.967.451 1.796.024 2.271.361.288.081.123-.3.361-.272.183.029.175.244.361.272-.151 1.369.089 2.308.089 3.721 1.488.643 3.169.533 5.275.549-.025.272.515 1.28.076 1.943.651.661-.32 2.904 1.012 2.96-.443.651-.744 1.44-.728 2.544-.32.143-.053-.309-.272-.272-2.253-.057-3.579-.411-5.992-.272.675.276 1.925.159 2.905.361.105.016.073.167.089.272.393-.187 1.471-.04 2.177 0-.317.167.443.329.455 0 .609.093 1.107.78 1.633.907 1.743.419 2.727-.841 3.815-1.631.171.357 1.008.021 1.544 0-.447-.264-1.516-.179-1.999 0 .163-1.284-.471-1.771-1.089-2.271.253-.143.528-.26.727-.453.025-1.789-.072-2.395-.181-3.995.967-.2 2.348-.325 3.543-.544-.423 1.292-.187 1.925-.361 3.631.223.111.531.135.816.184-.893.48-1.409 2.527-.272 3.176-.101.232-.488.18-.817.184.013.475 1.133-.163 1 .453.609-.491 4.24-.052 5.72.091-.159-.813-1.937-.16-2.725-.728 1.019-.649 1.035-2.616-.091-3.176.861-.573.359-2.929.635-4.267.824-.357 2.12-.24 2.815-.727-.02-1.163-.243-2.116-.453-3.088.288-.199.999-.447 1.36-.272.2-.016.195-.232.183-.455.08-.22.267.203.544.089.013-1.085-.491-1.633-1-2.544-.763-1.364-1.759-2.705-3.269-3.271-1.272-2.181-2.628-4.273-5.537-4.813-.163-.411-.065-1.085-.089-1.633.401-.353.752-.764.728-1.544 1.104-.471 2.84.113 3.904 0-.171-.56-1.155-.207-1.817-.272-.703-.069-1.397-.373-1.999 0-.173-.516-.471-1.475-.787-1.24-.188-.449-.176-1.153-.123-1.844L14.591.232 12.556 0zm-.509.317c2.06.179 4.221.256 5.903.816.289 2.068-.113 3.973.184 6.176-2.197-.373-4.68-.825-6.903-.456.107-2.173.195-4.579.816-6.536zm-.544.361c-.127 2.052-.528 3.791-.544 6.175-.431.325-.899.613-1.455.817-.049-.76.027-1.787.183-2.36.129.141.353.191.633.183.74-.853.373-2.324-.089-3.36.373-.533.653-1.161 1.272-1.453V.679zm3.017 1.053c-.374-.011-.747.032-1.108.129.443.008.96-.049 1.272.089-.633.276-1.061.755-1 1.727.971 1.348 2.628-.301 1.633-1.633.633-.045 1.784.439 2.632.361-.925-.259-2.253-.656-3.429-.673zm.475.472c.396.055.432 1.001.323 1.371-.427.516-1.316.187-1.453-.36.215-.115-.033-.696.36-.635-.109.687.22.935.728 1 .146-.183.241-.402.272-.635-.077-.312-.377-.405-.544-.633.067-.053.146-.089.229-.107.028-.005.057-.005.085-.001zm-4.764.563c.159.557.285 1.564.089 2.36-1.385-.032-.963-2.107-.089-2.36zm4.177 0c.3.004.64-.036.633.273a.46.46 0 0 1-.272.272c-.115-.187-.44-.167-.361-.544v-.001zm2.256.032c-.367.028-.72.329-.713 1.061.32.159.536.431 1.089.361.891-.753.236-1.468-.376-1.423zm.013.057c.4.028.688.16.635.635-.293-.127-.365-.476-.633-.635h-.001zm1.817.184c.524.576.552 2.291-.273 2.543-.032-.756-.08-1.921.273-2.543zm-1.992.092c.035.003.067.028.087.089-.253.139-.013.545.093.639-.357.053-.403-.204-.456-.456.021-.079.169-.28.276-.272zm.176.18c.284-.04.405.08.36.36-.284.045-.4-.076-.36-.36zM12.136 4.4c-.105.017-.077.167-.089.272 2.036.244 3.697.867 5.448.727-.284-.467-.947-.231-1.36-.272-1.26-.125-2.524-.604-3.816-.633-.105.013-.161-.02-.183-.093zm2.791 2.536c1.243.059 2.707.625 3.389.824.187.053.431-.057.633 0 .647.179 1.597.629 2 .911 1.124.787 1.9 2.409 2.632 3.72.26.472.687.813.816 1.183.403 1.147.467 2.356 1 3.36l.097.455c.288 1.012.569 2.427.727 3.271-4.037.573-7.829 1-11.08 1.36-2.696-.437-5.556-.231-7.991-.453-.401-3.072.533-6.127.363-9.264.016-.256.296-.247.361-.453-.232-.013-.467-.017-.455-.273.264-2.807 3.209-5.289 6.264-4.449.317-.048.407-.153.728-.181.172-.014.344-.017.516-.008h-.001zM13.192 12a2.15 2.15 0 0 0-.419.029c-.3.464-.207.883-.183 1.544 1.487 1.589 2.493-1.512.601-1.573zm6.751.023c-1.804.043-.509 3.596.912 1.733.337-1.076-.183-1.673-.727-1.727a1.55 1.55 0 0 0-.185-.007zm-3.147.04c-.342-.006-.675.111-.939.329-.113.556.119 1.259.456 1.633.691.056 1.213-.057 1.543-.363.125-.969-.4-1.569-1.061-1.6h.001zm-9.743.147c.48 1.457-.06 3.363-.089 4.903-.755-.121-1.425-.328-2.271-.36.44-1.861.885-3.72 2.36-4.544v.001zm6.513.089a.35.35 0 0 1 .203.093c.216.215-.016.447 0 .727-.369.089-.365-.008-.816 0 .065-.337-.155-.389-.089-.727.259.031.493-.117.703-.093zm3.067.004c.797-.071 1.232 1.072-.139 1-.101-.293-.365-.424-.453-.728a1.06 1.06 0 0 1 .591-.272h.001zm3.439.017c.359-.001.693.217.693.709-.313.365-.629.744-1.272.544-.04-.219.163-.2.089-.455-.179.004-.113.248-.36.183-.115-.613.387-.98.849-.981zm4.143.344c1.389.671 2.193 1.925 2.815 3.36-.661.056-1.052-.159-1.727-.089-.137-.768-.596-1.215-.633-2.088.24-.004.536.048.545-.184-.067-.349-.468-.627-.728-.272-.013-.32-.26-.405-.272-.727zm-17.709.272c-.117.387-.08.693.361.727.143-.256-.024-.373.093-.727h-.455zm7.631.272c.004.276-.192.353-.272.544-.512.029-.952-.02-1-.453.483.101.897.12 1.272-.091zm3.448 0v.455c-.361.167-1.613.373-1.271-.272.328.411 1.023.045 1.271-.183zm3.088.272c-.036.516-1.016.776-1.272.272.549.147.943.017 1.272-.272zm-8.443 1.82c.171.671-.179.845-.272 1.455 1.235.089 2.64-.028 3.721-.004.057-.08.109-.163 0-.183h-2.997c3.404-.703 5.613-.487 9.352-.361.101.284-.025.24.089.455-2.153.435-4.335-.536-6.444.089 2.084-.069 4.261.219 6.537.361.048-.463.117-1.109 0-1.633-.329-.085-.093.391-.272.456-2.487-.187-6.236-.167-9.443.272-.125-.117-.088-.395-.088-.633 1.947-.329 5.74.336 7.264-.273-2.267.139-4.965-.016-7.448 0zm8.724.085c-.432-.013-.899.019-1.187.004.413.403 1.613.02 2.177.272-.157-.2-.557-.261-.989-.276h-.001zm5.195.82c.424.003.883.093 1.065.273-.613-.211-1.215.223-1.727-.183.214-.067.437-.098.661-.091zm.2.433c.307-.003.613.031.772.112-.277.191-1.44.484-1.544 0 .16-.067.467-.108.773-.112h-.001zm1.287.325c.325-.051.495.467.484.876-.336.179-.584-.411-.633-.817.045-.029.096-.049.149-.059zM4.6 17.023c.544 0 1.787.089 2.271.455-.784-.125-1.844.029-2.271-.453v-.001zm22.52.183c.284.357.333.643.361 1.089-.349-.073-.379-.947-.361-1.089zm-1.267.091h.36c.008.417.228.617.183 1.088-.516-.028-.443-.645-.544-1.089l.001.001zm.812 0c.053.284.427.723.183.999-.143-.195-.415-.731-.183-1v.001zm-21.387.173c.573.013 1.26.152 1.411.459-.728-.117-1.512-.177-2.179-.36.121-.072.425-.108.769-.1l-.001.001zm-.333.457c.156 0 .28.037.293.189-.2.227-.103.743-.456.816 0-.149-.252-.053-.272-.183.125-.235.333-.393.272-.816a2.04 2.04 0 0 1 .164-.007h-.001zm-.524.007c-.024.337-.143.58-.361.727-.028-.389-.008-.735.361-.727zm1.633.179c.155.183.129.735-.089.816-.191-.101-.365-.865.089-.816zm.544.093c.02.167.236.6 0 .727-.028-.159-.419-.699 0-.727zm19.432 2.721c.301.033.141.524.183.817-3.173.776-6.085.951-9.551 1.467l-1.621-.013c-2.389.176-5.561.22-7.808-.272-.045-.32-.135-.592-.089-.999 3.043-.223 6.191.419 9.263.183 3.368-.26 6.601-1.044 9.624-1.183zm-.544.183a.42.42 0 0 1-.272.089c.008.265.032.512.36.456.013-.224.017-.44-.088-.545zm-3.543.456c-.021.325.131.475.455.453.069-.08.097-.201.089-.36-.107-.109-.32-.107-.544-.093zm-13.984.544c-.061.305.155.333.361.361.073-.08.103-.203.093-.361H7.96zm9.263.089c-.133.284-.004.369.183.544.232-.007.179-.304.179-.544h-.361zm-5.484.1c-.086-.004-.171.026-.236.083-.02.325.129.475.455.455.18-.247.011-.523-.219-.537zm11.749.261c.012.695-.111.776-.093 1.544-1.361.093-1.963-.131-3.177-.183.413-1.215 2.067-1.163 3.271-1.361zm-7.443.911c.06.328.125.657.089 1.088-1.159.037-2.316-.296-3.36-.088-.103-.285-.009-.208 0-.545.804-.536 2.551-.305 3.271-.455zm5.208.884c.184-.008.436.039.601.204h-.272c-.76-.023-.636-.189-.329-.204zm1.843.005c.177-.011.319.013.303.2-.103.12-.716-.009-.817-.184.127.04.339-.005.515-.016zm-8.527.287c.243.009.449.053.565.184-.329-.004-.715.049-.816-.183a3.61 3.61 0 0 1 .251 0v-.001zm7.059.084c.565-.003 1.147.057 1.68.373-1.221-.273-2.693.147-3.269-.361.473.059 1.024-.008 1.589-.012zm-8.101.235c.907-.007 2.155.129 2.697.504-1.296-.167-2.324.028-3.449-.455.249-.034.5-.051.752-.049zm7.353.228c.921.008 1.803.059 2.523.276-.155.24-.013.78-.183 1-.849-.089-2.437.171-3.36 0-.049-.504.048-.859.089-1.272l.931-.004zm-8.016.181c.764.139 2.56.253 3.36.367-.119.657.223 1.259 0 1.727-.797.471-2.036.504-3.177.633-.196-.715-.423-1.88-.183-2.727zm9.263 1.455c1.272-.056 1.876 1.021 1.723 1.907-.277 1.604-3.336 1.981-4.176.633.012-.955.004-1.933.727-2.177.085.653-.293.787-.272 1.183.077 1.613 3.043 1.836 3.271.36.173-1.14-.829-1.197-1.272-1.905zm-1.008.32a.11.11 0 0 1 .087.01c.013.008.024.018.033.03s.015.026.018.041c.005.007.012.007.016.013.048.093.057.195.077.297.013.06-.029.101-.081.117-.089.025-.18.04-.272.045-.081.004-.16-.083-.101-.16a1.58 1.58 0 0 0 .167-.336c.005-.013.012-.025.022-.035s.021-.018.034-.023v-.001zm1.373.408c.353.008.736.605.633 1.36-.369.651-2.072.704-2.088.456 1.06.121 1.381-.496 1.816-1 .029-.365-.589-.556-.361-.816zm-.485.22c.247-.008.489.333.575.596-.413.28-.667.728-1.272.817-.227-.224-.597-.313-.544-.817.627-.053.557-.211 1 .091.2-.192-.045-.26 0-.545.077-.096.16-.139.241-.141zm-7.053.413c1.181.033 1.567.853 1.721 1.907.04.251-.337.084-.361.271.105.037.198.1.272.183-.613 1.191-4.225 1.933-3.632-.544.093 1.568 2.373 1.268 2.997.363.301-1.276-.584-1.387-.999-2.177l.001-.001zm-.635.728c.117.12.34.136.367.349.004.035.004.07-.001.105-.175.171-.228.008-.456 0 .049-.133-.105-.472.091-.455zm.727 0c1.868.735-.212 2.733-1.633 1.636-.125-.353-.413-1.288.089-1.453.16.264.215.633.183 1.089.399.629 1.845.405 1.907-.363-.373-.101-.176-.637-.547-.909h.001zm.089.633c.125.119.089.395.093.639-.443.056-.947.316-1.183-.184.557.04.655-.373 1.089-.453v-.001zm11.337.709a.98.98 0 0 0-.44.112c.523.227.719-.092.44-.112z"/></svg>