<?xml version="1.0" encoding="UTF-8" standalone="no"?>
<!DOCTYPE svg PUBLIC "-//W3C//DTD SVG 20010904//EN" "http://www.w3.org/TR/2001/REC-SVG-20010904/DTD/svg10.dtd">
<svg version="1.0" xmlns="http://www.w3.org/2000/svg" width="700.000000pt" height="700.000000pt" viewBox="0 0 700.000000 700.000000" preserveAspectRatio="xMidYMid meet">
<metadata>
Created by potrace 1.14, written by Peter Selinger 2001-2017
</metadata>
<g transform="translate(0.000000,700.000000) scale(0.100000,-0.100000)" fill="#3c3c3c" stroke="none">
<path d="M0 3500 l0 -3500 3500 0 3500 0 0 3500 0 3500 -3500 0 -3500 0 0 -3500z m4635 2097 l890 -515 0 -1057 0 -1057 -675 -389 c-371 -215 -783 -452 -915 -528 -132 -76 -642 -371 -1134 -655 -491 -284 -897 -516 -902 -516 -5 0 -9 451 -9 1046 0 833 3 1045 13 1041 6 -2 414 -237 906 -521 491 -284 895 -516 897 -516 2 0 4 472 4 1049 l0 1049 -905 522 c-498 288 -902 527 -897 532 4 4 413 242 907 527 650 375 904 517 915 511 8 -5 416 -240 905 -523z"/>
</g>
</svg>